# xmcd CD database file
#
# Track frame offsets:
#	150
#	11517
#	26417
#	37352
#	50422
#	66377
#	84450
#	93737
#	110050
#	123920
#	137387
#	154127
#	171977
#	183305
#	196897
#	209262
#	223207
#	239012
#	252547
#	269837
#	284930
#	305060
#	320395
#	333727
#
# Disc length: 4581 seconds
#
# Revision: 3
# Processed by: cddbd v1.5.2PL0 Copyright (c) Steve Scherf et al.
# Submitted via: CDex 1.51
#
DISCID=8611e318
DTITLE=Mirek HOFFMANN - Pribehy (The Best of Mirek Hoffmann)
DYEAR=1995
DGENRE=Country
TTITLE0=Historie tehle kary
TTITLE1=Zluta kytka
TTITLE2=Cekani na vlak
TTITLE3=A slunce pali jen
TTITLE4=Odvolejte kneze z cesty
TTITLE5=Balada o Boot Hill
TTITLE6=Zadnej vlak
TTITLE7=Kovbojuv stesk
TTITLE8=Jizni vitr
TTITLE9=Zloutnou uz travy
TTITLE10=Dam si pres rameno pingl
TTITLE11=Co se bude dit
TTITLE12=Vuz do Tennessee
TTITLE13=Tom Dooley
TTITLE14=Bilej snih
TTITLE15=Zatoka
TTITLE16=Svetice ze Spooker Hill
TTITLE17=Bida s nouzi
TTITLE18=Divka s vlasem medovym
TTITLE19=Kam te zene proud
TTITLE20=Pastor z Little Fort
TTITLE21=Bam-bam-bam
TTITLE22=Plane s travou zelenou
TTITLE23=Hej, Joe
EXTD=YEAR: 1995
EXTT0=
EXTT1=
EXTT2=
EXTT3=
EXTT4=
EXTT5=
EXTT6=
EXTT7=
EXTT8=
EXTT9=
EXTT10=
EXTT11=
EXTT12=
EXTT13=
EXTT14=
EXTT15=
EXTT16=
EXTT17=
EXTT18=
EXTT19=
EXTT20=
EXTT21=
EXTT22=
EXTT23=
PLAYORDER=
